<svg xmlns="http://www.w3.org/2000/svg" viewBox="0 0 112 167.14"><defs><style>.cls-1{fill:#bac7ce;}.cls-2{fill:#60c08e;}.cls-3{fill:#93c83c;}.cls-4{fill:#00b4bd;}.cls-5{fill:#36626f;}</style></defs><title>xdebug-phpstorm</title><g id="Layer_2" data-name="Layer 2"><g id="Layer_1-2" data-name="Layer 1"><path class="cls-1" d="M107.9,73.87H77.37A4.09,4.09,0,0,1,73.7,68L104.12,5.89A4.09,4.09,0,0,0,100.44,0H41a4.09,4.09,0,0,0-3.81,2.61L.28,97.85a4.09,4.09,0,0,0,3.82,5.57H31.32a4.09,4.09,0,0,1,3.93,5.22L20,161.9a4.09,4.09,0,0,0,6.85,4l83.94-85.07A4.09,4.09,0,0,0,107.9,73.87Z"/><path class="cls-2" d="M61,91.76H48.75a3.41,3.41,0,0,0,0,6.82H61a3.41,3.41,0,1,0,0-6.82Z"/><circle class="cls-3" cx="60.16" cy="83.77" r="3.41"/><circle class="cls-4" cx="58.29" cy="106.57" r="3.41"/><circle class="cls-2" cx="67.84" cy="106.57" r="3.41"/><path class="cls-5" d="M83.89,103.28a30.27,30.27,0,0,0,.86-7.17V74.74A19.86,19.86,0,0,0,97.3,68.56C105,60.26,104.05,47,104,46.45a3.41,3.41,0,0,0-6.8.52c0,.11.73,10.89-4.92,17-2.63,2.82-6.21,4.2-10.94,4.2H73.06V56a18.93,18.93,0,0,0-2.8-9.88L81.15,35.46a3.41,3.41,0,0,0-4.77-4.88L65.71,41a18.85,18.85,0,0,0-23.3,0L31.74,30.58A3.41,3.41,0,0,0,27,35.46L37.86,46.09A18.93,18.93,0,0,0,35.06,56V68.15H26.78c-4.73,0-8.31-1.38-10.94-4.2-5.64-6.08-4.93-16.83-4.92-17a3.41,3.41,0,0,0-6.8-.52c0,.56-1,13.81,6.7,22.11a19.86,19.86,0,0,0,12.56,6.18V96.11a30.79,30.79,0,0,0,.85,7.17,20.06,20.06,0,0,0-13.41,6.29c-7.68,8.3-6.74,21.55-6.7,22.11a3.4,3.4,0,0,0,3.39,3.14h.26a3.41,3.41,0,0,0,3.15-3.65c0-.11-.73-10.89,4.92-17C18.46,111.37,22,110,26.7,110a30.67,30.67,0,0,0,54.72,0c4.69,0,8.25,1.39,10.86,4.2,5.64,6.08,4.93,16.84,4.92,17a3.4,3.4,0,0,0,3.14,3.65h.27a3.4,3.4,0,0,0,3.39-3.14c0-.56,1-13.81-6.7-22.11A20.06,20.06,0,0,0,83.89,103.28ZM41.88,56a12.09,12.09,0,0,1,2.91-7.87h0l0,0a12.13,12.13,0,0,1,18.5,0l0,0h0A12.15,12.15,0,0,1,66.24,56V68.15H41.88Zm12.18,64a23.82,23.82,0,0,1-19.38-10H49.2a3.41,3.41,0,1,0,0-6.82H31.26a23.85,23.85,0,0,1-.94-4.58h9.34a3.41,3.41,0,0,0,0-6.82H30.19V87.18h21a3.41,3.41,0,0,0,0-6.82h-21V75H77.93v5.39H69.15a3.41,3.41,0,0,0,0,6.82h8.78v8.93A23.89,23.89,0,0,1,54.06,120Z"/></g></g></svg>